#N canvas 827 239 527 327 12;
#X obj 51 518 fluid.onsetfeature~;
#X obj -631 -204 soundfiler;
#N canvas 0 0 450 250 (subpatch) 0;
#X array gabbiani 6.15246e+06 float 4;
#X coords 0 1 6.15246e+06 -1 200 140 1;
#X restore 269 -366 graph;
#N canvas 0 0 450 250 (subpatch) 0;
#X array onde 8.63664e+06 float 4;
#X coords 0 1 8.63663e+06 -1 200 140 1;
#X restore 475 -366 graph;
#N canvas 0 0 450 250 (subpatch) 0;
#X array grilli_civette 5.00824e+06 float 4;
#X coords 0 1 5.00824e+06 -1 200 140 1;
#X restore 681 -366 graph;
#X msg -546 -364 read -resize /Users/davidecommone/Documents/Biblioteca/Biblioteca_conservatorio/Tesi/Soundscape_dataset/edited/gabbiani_dataset_source.wav gabbiani, f 105;
#X obj 411 474 fluid.noveltyfeature~;
#X msg -546 -310 read -resize /Users/davidecommone/Documents/Biblioteca/Biblioteca_conservatorio/Tesi/Soundscape_dataset/edited/ondealberoni_dataset_source.wav onde, f 105;
#X msg -546 -262 read -resize /Users/davidecommone/Documents/Biblioteca/Biblioteca_conservatorio/Tesi/Soundscape_dataset/edited/notte_dataset_source.wav grilli_civette, f 105;
#X obj 51 108 play~;
#X msg 92 48 set gabbiani;
#X obj 131 144 bng 25 250 50 0 empty empty empty 17 7 0 10 #191919 #e1e1e1 #e1e1e1;
#X msg 3 40 start;
#X msg 1 80 stop;
#X obj -627 -428 loadbang;
#X floatatom 458 550 24 0 0 0 - - - 36;
#X msg 98 425 metric 0;
#X floatatom 117 561 23 0 0 0 - - - 36;
#X msg 98 455 filtersize 1;
#X obj 76 354 loadbang;
#X floatatom -384 585 21 0 0 0 dB - - 36;
#X obj -557 705 chrono;
#X obj -457 669 t b b;
#X obj -590 771 symbol;
#X obj 829 1077 textfile;
#X msg 829 994 clear;
#X msg 773 953 add \$1;
#X obj -543 612 tgl 25 0 empty empty empty 17 7 0 10 #191919 #e1e1e1 #e1e1e1 0 1;
#X obj -574 541 t b b;
#X obj -457 329 env~ 8192 4096;
#X msg 96 187 0;
#X obj -376 762 symbol2any;
#X obj -376 796 separate empty;
#X obj -368 833 list split 3;
#X text -287 832 toglie i valori inutili delle ore (00:);
#X obj 851 962 loadbang;
#X obj -126 705 bang;
#X obj 106 796 f;
#X obj 438 808 f;
#X obj 1411 1077 textfile;
#X msg 1411 994 clear;
#X msg 1355 953 add \$1;
#X obj 1433 962 loadbang;
#X obj 1873 1084 textfile;
#X msg 1873 1001 clear;
#X msg 1817 960 add \$1;
#X obj 1895 969 loadbang;
#X msg 98 481 framedelta 0;
#X msg -109 455 fftsettings 8192 4096 -1;
#X msg 411 418 fftsettings 8192 4096 -1;
#X msg 630 418 metric 4;
#X msg 1442 1031 write retrieving_output/test_retriving_gabbiani_onsetfeature.txt;
#X msg 1904 1038 write retrieving_output/test_retriving_gabbiani_noveltyfeature.txt;
#X msg 860 1031 write retrieving_output/test_retriving_gabbiani_deltatime.txt;
#X obj 92 0 loadbang;
#X msg -684 270 84;
#X text -644 269 gabbiani;
#X text -644 321 onde;
#X obj -457 388 above;
#X obj 849 1318 textfile;
#X msg 849 1235 clear;
#X msg 793 1194 add \$1;
#X obj 871 1203 loadbang;
#X obj 1431 1318 textfile;
#X msg 1431 1235 clear;
#X msg 1375 1194 add \$1;
#X obj 1453 1203 loadbang;
#X obj 1893 1325 textfile;
#X msg 1893 1242 clear;
#X obj 1915 1210 loadbang;
#X msg 880 1272 write retrieving_output/test_retriving_notte_deltatime.txt;
#X msg 1462 1272 write retrieving_output/test_retriving_notte_onsetfeature.txt;
#X msg 1924 1279 write retrieving_output/test_retriving_notte_noveltyfeature.txt;
#X msg 1841 1194 add \$1;
#X obj -498 1550 textfile;
#X msg -498 1467 clear;
#X msg -554 1426 add \$1;
#X obj -476 1435 loadbang;
#X obj 84 1550 textfile;
#X msg 84 1467 clear;
#X msg 28 1426 add \$1;
#X obj 106 1435 loadbang;
#X obj 546 1557 textfile;
#X msg 546 1474 clear;
#X obj 568 1442 loadbang;
#X msg 494 1426 add \$1;
#X msg -684 365 65;
#X msg 188 48 set onde;
#X msg 284 48 set grilli_civette;
#X text -644 364 grilli_civette;
#X obj -574 874 print onset_deltatime;
#X obj 158 851 print onset_feature;
#X obj 472 851 print novelty_feature;
#X msg 577 1511 write retrieving_output/test_retriving_onde_noveltyfeature.txt;
#X msg 115 1504 write retrieving_output/test_retriving_onde_onsetfeature.txt;
#X msg -467 1504 write retrieving_output/test_retriving_onde_deltatime.txt;
#X msg -684 322 84;
#X connect 0 0 17 0;
#X connect 0 0 37 1;
#X connect 5 0 1 0;
#X connect 6 0 15 0;
#X connect 6 0 38 1;
#X connect 7 0 1 0;
#X connect 8 0 1 0;
#X connect 9 0 0 0;
#X connect 9 0 29 0;
#X connect 9 0 6 0;
#X connect 9 1 11 0;
#X connect 10 0 9 0;
#X connect 11 0 30 0;
#X connect 11 0 94 0;
#X connect 11 0 95 0;
#X connect 11 0 93 0;
#X connect 12 0 9 0;
#X connect 12 0 28 0;
#X connect 13 0 9 0;
#X connect 14 0 5 0;
#X connect 14 0 7 0;
#X connect 14 0 8 0;
#X connect 16 0 0 0;
#X connect 18 0 0 0;
#X connect 19 0 48 0;
#X connect 19 0 16 0;
#X connect 19 0 18 0;
#X connect 19 0 47 0;
#X connect 19 0 49 0;
#X connect 19 0 50 0;
#X connect 21 0 23 1;
#X connect 22 0 21 0;
#X connect 22 1 36 0;
#X connect 23 0 31 0;
#X connect 23 0 90 0;
#X connect 23 0 76 0;
#X connect 25 0 24 0;
#X connect 26 0 24 0;
#X connect 27 0 21 0;
#X connect 28 0 21 0;
#X connect 28 1 27 0;
#X connect 29 0 20 0;
#X connect 29 0 58 0;
#X connect 30 0 27 0;
#X connect 31 0 32 0;
#X connect 32 0 33 0;
#X connect 35 0 25 0;
#X connect 36 0 37 0;
#X connect 36 0 38 0;
#X connect 36 0 23 0;
#X connect 37 0 91 0;
#X connect 37 0 80 0;
#X connect 38 0 92 0;
#X connect 38 0 85 0;
#X connect 40 0 39 0;
#X connect 41 0 39 0;
#X connect 42 0 40 0;
#X connect 44 0 43 0;
#X connect 45 0 43 0;
#X connect 46 0 44 0;
#X connect 47 0 0 0;
#X connect 48 0 0 0;
#X connect 49 0 6 0;
#X connect 50 0 6 0;
#X connect 51 0 39 0;
#X connect 52 0 43 0;
#X connect 53 0 24 0;
#X connect 55 0 58 1;
#X connect 58 0 22 0;
#X connect 60 0 59 0;
#X connect 61 0 59 0;
#X connect 62 0 60 0;
#X connect 64 0 63 0;
#X connect 65 0 63 0;
#X connect 66 0 64 0;
#X connect 68 0 67 0;
#X connect 69 0 68 0;
#X connect 70 0 59 0;
#X connect 71 0 63 0;
#X connect 72 0 67 0;
#X connect 73 0 67 0;
#X connect 75 0 74 0;
#X connect 76 0 74 0;
#X connect 77 0 75 0;
#X connect 79 0 78 0;
#X connect 80 0 78 0;
#X connect 81 0 79 0;
#X connect 83 0 82 0;
#X connect 84 0 83 0;
#X connect 85 0 82 0;
#X connect 86 0 58 1;
#X connect 87 0 9 0;
#X connect 88 0 9 0;
#X connect 93 0 82 0;
#X connect 94 0 78 0;
#X connect 95 0 74 0;
#X connect 96 0 58 1;
